<mxfile host="Electron" agent="Mozilla/5.0 (Windows NT 10.0; Win64; x64) AppleWebKit/537.36 (KHTML, like Gecko) draw.io/26.2.2 Chrome/134.0.6998.178 Electron/35.1.2 Safari/537.36" version="26.2.2" pages="2">
  <diagram id="89L43GkFxovWfiTR1yN-" name="Page-2">
    <mxGraphModel dx="1744" dy="1163" grid="1" gridSize="10" guides="1" tooltips="1" connect="1" arrows="1" fold="1" page="1" pageScale="1" pageWidth="850" pageHeight="1100" background="#ffffff" math="0" shadow="0">
      <root>
        <mxCell id="UZRYZXfFxwNRGI_YSuTB-0" />
        <mxCell id="UZRYZXfFxwNRGI_YSuTB-1" parent="UZRYZXfFxwNRGI_YSuTB-0" />
        <mxCell id="7LQwqWcmf4sO_3C_LHzw-0" value="" style="rounded=0;whiteSpace=wrap;html=1;" parent="UZRYZXfFxwNRGI_YSuTB-1" vertex="1">
          <mxGeometry x="134.5" y="80" width="225.5" height="140" as="geometry" />
        </mxCell>
        <mxCell id="7LQwqWcmf4sO_3C_LHzw-3" value="s" style="text;html=1;strokeColor=none;fillColor=none;align=right;verticalAlign=middle;whiteSpace=wrap;rounded=0;fontColor=default;" parent="UZRYZXfFxwNRGI_YSuTB-1" vertex="1">
          <mxGeometry x="70" y="80" width="60" height="20" as="geometry" />
        </mxCell>
        <mxCell id="7LQwqWcmf4sO_3C_LHzw-22" value="" style="rounded=0;whiteSpace=wrap;html=1;" parent="UZRYZXfFxwNRGI_YSuTB-1" vertex="1">
          <mxGeometry x="208.38" y="150" width="139.5" height="60" as="geometry" />
        </mxCell>
        <mxCell id="7LQwqWcmf4sO_3C_LHzw-24" value="Alex" style="rounded=0;whiteSpace=wrap;html=1;align=center;" parent="UZRYZXfFxwNRGI_YSuTB-1" vertex="1">
          <mxGeometry x="260.38" y="160" width="77.5" height="20" as="geometry" />
        </mxCell>
        <mxCell id="7LQwqWcmf4sO_3C_LHzw-25" value="m_name" style="text;html=1;strokeColor=none;fillColor=none;align=right;verticalAlign=middle;whiteSpace=wrap;rounded=0;" parent="UZRYZXfFxwNRGI_YSuTB-1" vertex="1">
          <mxGeometry x="199.38" y="160" width="60" height="20" as="geometry" />
        </mxCell>
        <mxCell id="4-1yxFDENzRKvAAspIUI-0" value="20" style="rounded=0;whiteSpace=wrap;html=1;align=center;" parent="UZRYZXfFxwNRGI_YSuTB-1" vertex="1">
          <mxGeometry x="260.38" y="180" width="77.5" height="20" as="geometry" />
        </mxCell>
        <mxCell id="4-1yxFDENzRKvAAspIUI-1" value="m_age" style="text;html=1;strokeColor=none;fillColor=none;align=right;verticalAlign=middle;whiteSpace=wrap;rounded=0;" parent="UZRYZXfFxwNRGI_YSuTB-1" vertex="1">
          <mxGeometry x="199.38" y="180" width="60" height="20" as="geometry" />
        </mxCell>
        <mxCell id="4-1yxFDENzRKvAAspIUI-2" value="Student Object" style="text;html=1;strokeColor=none;fillColor=none;align=left;verticalAlign=middle;whiteSpace=wrap;rounded=0;fontStyle=2;fontColor=#666666;" parent="UZRYZXfFxwNRGI_YSuTB-1" vertex="1">
          <mxGeometry x="134.5" y="60" width="105.5" height="20" as="geometry" />
        </mxCell>
        <mxCell id="4-1yxFDENzRKvAAspIUI-3" value="Person Object" style="text;html=1;strokeColor=none;fillColor=none;align=left;verticalAlign=middle;whiteSpace=wrap;rounded=0;fontStyle=2;fontColor=#666666;" parent="UZRYZXfFxwNRGI_YSuTB-1" vertex="1">
          <mxGeometry x="208.38" y="130" width="105.5" height="20" as="geometry" />
        </mxCell>
        <mxCell id="4-1yxFDENzRKvAAspIUI-4" value="Computer Science" style="rounded=0;whiteSpace=wrap;html=1;align=center;" parent="UZRYZXfFxwNRGI_YSuTB-1" vertex="1">
          <mxGeometry x="207.63" y="90" width="119" height="20" as="geometry" />
        </mxCell>
        <mxCell id="4-1yxFDENzRKvAAspIUI-5" value="m_major" style="text;html=1;strokeColor=none;fillColor=none;align=right;verticalAlign=middle;whiteSpace=wrap;rounded=0;" parent="UZRYZXfFxwNRGI_YSuTB-1" vertex="1">
          <mxGeometry x="146.63" y="90" width="60" height="20" as="geometry" />
        </mxCell>
      </root>
    </mxGraphModel>
  </diagram>
  <diagram name="Copy of Page-2" id="kfUVEZbxbAZuvnUJtpo8">
    <mxGraphModel dx="842" dy="561" grid="1" gridSize="10" guides="1" tooltips="1" connect="1" arrows="1" fold="1" page="1" pageScale="1" pageWidth="850" pageHeight="1100" background="#ffffff" math="0" shadow="0">
      <root>
        <mxCell id="WZiZD5s-zwFRVD76pO2U-0" />
        <mxCell id="WZiZD5s-zwFRVD76pO2U-1" parent="WZiZD5s-zwFRVD76pO2U-0" />
        <mxCell id="nVBr-f2orLscCy9mesvD-71" value="" style="rounded=0;whiteSpace=wrap;html=1;" vertex="1" parent="WZiZD5s-zwFRVD76pO2U-1">
          <mxGeometry x="445" y="290" width="335" height="70" as="geometry" />
        </mxCell>
        <mxCell id="nVBr-f2orLscCy9mesvD-44" value="" style="rounded=0;whiteSpace=wrap;html=1;" vertex="1" parent="WZiZD5s-zwFRVD76pO2U-1">
          <mxGeometry x="445" y="90" width="335" height="200" as="geometry" />
        </mxCell>
        <mxCell id="nVBr-f2orLscCy9mesvD-61" value="&lt;i&gt;main stack frame&lt;/i&gt;" style="text;html=1;strokeColor=none;fillColor=none;align=left;verticalAlign=middle;whiteSpace=wrap;rounded=0;" vertex="1" parent="WZiZD5s-zwFRVD76pO2U-1">
          <mxGeometry x="445" y="90" width="190" height="20" as="geometry" />
        </mxCell>
        <mxCell id="WZiZD5s-zwFRVD76pO2U-2" value="" style="rounded=0;whiteSpace=wrap;html=1;" vertex="1" parent="WZiZD5s-zwFRVD76pO2U-1">
          <mxGeometry x="134.5" y="80" width="225.5" height="140" as="geometry" />
        </mxCell>
        <mxCell id="WZiZD5s-zwFRVD76pO2U-3" value="s" style="text;html=1;strokeColor=none;fillColor=none;align=right;verticalAlign=middle;whiteSpace=wrap;rounded=0;fontColor=default;" vertex="1" parent="WZiZD5s-zwFRVD76pO2U-1">
          <mxGeometry x="70" y="80" width="60" height="20" as="geometry" />
        </mxCell>
        <mxCell id="WZiZD5s-zwFRVD76pO2U-4" value="" style="rounded=0;whiteSpace=wrap;html=1;" vertex="1" parent="WZiZD5s-zwFRVD76pO2U-1">
          <mxGeometry x="208.38" y="150" width="139.5" height="60" as="geometry" />
        </mxCell>
        <mxCell id="WZiZD5s-zwFRVD76pO2U-5" value="Alex" style="rounded=0;whiteSpace=wrap;html=1;align=center;" vertex="1" parent="WZiZD5s-zwFRVD76pO2U-1">
          <mxGeometry x="260.38" y="160" width="77.5" height="20" as="geometry" />
        </mxCell>
        <mxCell id="WZiZD5s-zwFRVD76pO2U-6" value="m_name" style="text;html=1;strokeColor=none;fillColor=none;align=right;verticalAlign=middle;whiteSpace=wrap;rounded=0;" vertex="1" parent="WZiZD5s-zwFRVD76pO2U-1">
          <mxGeometry x="199.38" y="160" width="60" height="20" as="geometry" />
        </mxCell>
        <mxCell id="WZiZD5s-zwFRVD76pO2U-7" value="20" style="rounded=0;whiteSpace=wrap;html=1;align=center;" vertex="1" parent="WZiZD5s-zwFRVD76pO2U-1">
          <mxGeometry x="260.38" y="180" width="77.5" height="20" as="geometry" />
        </mxCell>
        <mxCell id="WZiZD5s-zwFRVD76pO2U-8" value="m_age" style="text;html=1;strokeColor=none;fillColor=none;align=right;verticalAlign=middle;whiteSpace=wrap;rounded=0;" vertex="1" parent="WZiZD5s-zwFRVD76pO2U-1">
          <mxGeometry x="199.38" y="180" width="60" height="20" as="geometry" />
        </mxCell>
        <mxCell id="WZiZD5s-zwFRVD76pO2U-9" value="Student Object" style="text;html=1;strokeColor=none;fillColor=none;align=left;verticalAlign=middle;whiteSpace=wrap;rounded=0;fontStyle=2;fontColor=#666666;" vertex="1" parent="WZiZD5s-zwFRVD76pO2U-1">
          <mxGeometry x="134.5" y="60" width="105.5" height="20" as="geometry" />
        </mxCell>
        <mxCell id="WZiZD5s-zwFRVD76pO2U-10" value="Person Object" style="text;html=1;strokeColor=none;fillColor=none;align=left;verticalAlign=middle;whiteSpace=wrap;rounded=0;fontStyle=2;fontColor=#666666;" vertex="1" parent="WZiZD5s-zwFRVD76pO2U-1">
          <mxGeometry x="208.38" y="130" width="105.5" height="20" as="geometry" />
        </mxCell>
        <mxCell id="WZiZD5s-zwFRVD76pO2U-11" value="Computer Science" style="rounded=0;whiteSpace=wrap;html=1;align=center;" vertex="1" parent="WZiZD5s-zwFRVD76pO2U-1">
          <mxGeometry x="207.63" y="90" width="119" height="20" as="geometry" />
        </mxCell>
        <mxCell id="WZiZD5s-zwFRVD76pO2U-12" value="m_major" style="text;html=1;strokeColor=none;fillColor=none;align=right;verticalAlign=middle;whiteSpace=wrap;rounded=0;" vertex="1" parent="WZiZD5s-zwFRVD76pO2U-1">
          <mxGeometry x="146.63" y="90" width="60" height="20" as="geometry" />
        </mxCell>
        <mxCell id="nVBr-f2orLscCy9mesvD-11" value="" style="rounded=0;whiteSpace=wrap;html=1;" vertex="1" parent="WZiZD5s-zwFRVD76pO2U-1">
          <mxGeometry x="135" y="250" width="139.5" height="60" as="geometry" />
        </mxCell>
        <mxCell id="nVBr-f2orLscCy9mesvD-12" value="Alex" style="rounded=0;whiteSpace=wrap;html=1;align=center;" vertex="1" parent="WZiZD5s-zwFRVD76pO2U-1">
          <mxGeometry x="187" y="260" width="77.5" height="20" as="geometry" />
        </mxCell>
        <mxCell id="nVBr-f2orLscCy9mesvD-13" value="m_name" style="text;html=1;strokeColor=none;fillColor=none;align=right;verticalAlign=middle;whiteSpace=wrap;rounded=0;" vertex="1" parent="WZiZD5s-zwFRVD76pO2U-1">
          <mxGeometry x="126" y="260" width="60" height="20" as="geometry" />
        </mxCell>
        <mxCell id="nVBr-f2orLscCy9mesvD-14" value="20" style="rounded=0;whiteSpace=wrap;html=1;align=center;" vertex="1" parent="WZiZD5s-zwFRVD76pO2U-1">
          <mxGeometry x="187" y="280" width="77.5" height="20" as="geometry" />
        </mxCell>
        <mxCell id="nVBr-f2orLscCy9mesvD-15" value="m_age" style="text;html=1;strokeColor=none;fillColor=none;align=right;verticalAlign=middle;whiteSpace=wrap;rounded=0;" vertex="1" parent="WZiZD5s-zwFRVD76pO2U-1">
          <mxGeometry x="126" y="280" width="60" height="20" as="geometry" />
        </mxCell>
        <mxCell id="nVBr-f2orLscCy9mesvD-16" value="Person Object" style="text;html=1;strokeColor=none;fillColor=none;align=left;verticalAlign=middle;whiteSpace=wrap;rounded=0;fontStyle=2;fontColor=#666666;" vertex="1" parent="WZiZD5s-zwFRVD76pO2U-1">
          <mxGeometry x="135" y="230" width="105.5" height="20" as="geometry" />
        </mxCell>
        <mxCell id="nVBr-f2orLscCy9mesvD-17" value="p" style="text;html=1;strokeColor=none;fillColor=none;align=right;verticalAlign=middle;whiteSpace=wrap;rounded=0;fontColor=default;" vertex="1" parent="WZiZD5s-zwFRVD76pO2U-1">
          <mxGeometry x="70" y="250" width="60" height="20" as="geometry" />
        </mxCell>
        <mxCell id="nVBr-f2orLscCy9mesvD-29" value="" style="rounded=0;whiteSpace=wrap;html=1;" vertex="1" parent="WZiZD5s-zwFRVD76pO2U-1">
          <mxGeometry x="534.5" y="130" width="225.5" height="140" as="geometry" />
        </mxCell>
        <mxCell id="nVBr-f2orLscCy9mesvD-30" value="s" style="text;html=1;strokeColor=none;fillColor=none;align=right;verticalAlign=middle;whiteSpace=wrap;rounded=0;fontColor=default;" vertex="1" parent="WZiZD5s-zwFRVD76pO2U-1">
          <mxGeometry x="470" y="130" width="60" height="20" as="geometry" />
        </mxCell>
        <mxCell id="nVBr-f2orLscCy9mesvD-31" value="" style="rounded=0;whiteSpace=wrap;html=1;" vertex="1" parent="WZiZD5s-zwFRVD76pO2U-1">
          <mxGeometry x="608.38" y="200" width="139.5" height="60" as="geometry" />
        </mxCell>
        <mxCell id="nVBr-f2orLscCy9mesvD-32" value="Alex" style="rounded=0;whiteSpace=wrap;html=1;align=center;" vertex="1" parent="WZiZD5s-zwFRVD76pO2U-1">
          <mxGeometry x="660.38" y="210" width="77.5" height="20" as="geometry" />
        </mxCell>
        <mxCell id="nVBr-f2orLscCy9mesvD-33" value="m_name" style="text;html=1;strokeColor=none;fillColor=none;align=right;verticalAlign=middle;whiteSpace=wrap;rounded=0;" vertex="1" parent="WZiZD5s-zwFRVD76pO2U-1">
          <mxGeometry x="599.38" y="210" width="60" height="20" as="geometry" />
        </mxCell>
        <mxCell id="nVBr-f2orLscCy9mesvD-34" value="20" style="rounded=0;whiteSpace=wrap;html=1;align=center;" vertex="1" parent="WZiZD5s-zwFRVD76pO2U-1">
          <mxGeometry x="660.38" y="230" width="77.5" height="20" as="geometry" />
        </mxCell>
        <mxCell id="nVBr-f2orLscCy9mesvD-35" value="m_age" style="text;html=1;strokeColor=none;fillColor=none;align=right;verticalAlign=middle;whiteSpace=wrap;rounded=0;" vertex="1" parent="WZiZD5s-zwFRVD76pO2U-1">
          <mxGeometry x="599.38" y="230" width="60" height="20" as="geometry" />
        </mxCell>
        <mxCell id="nVBr-f2orLscCy9mesvD-36" value="Student Object" style="text;html=1;strokeColor=none;fillColor=none;align=left;verticalAlign=middle;whiteSpace=wrap;rounded=0;fontStyle=2;fontColor=#666666;" vertex="1" parent="WZiZD5s-zwFRVD76pO2U-1">
          <mxGeometry x="534.5" y="110" width="105.5" height="20" as="geometry" />
        </mxCell>
        <mxCell id="nVBr-f2orLscCy9mesvD-37" value="Person Object" style="text;html=1;strokeColor=none;fillColor=none;align=left;verticalAlign=middle;whiteSpace=wrap;rounded=0;fontStyle=2;fontColor=#666666;" vertex="1" parent="WZiZD5s-zwFRVD76pO2U-1">
          <mxGeometry x="608.38" y="180" width="105.5" height="20" as="geometry" />
        </mxCell>
        <mxCell id="nVBr-f2orLscCy9mesvD-38" value="Computer Science" style="rounded=0;whiteSpace=wrap;html=1;align=center;" vertex="1" parent="WZiZD5s-zwFRVD76pO2U-1">
          <mxGeometry x="607.63" y="140" width="119" height="20" as="geometry" />
        </mxCell>
        <mxCell id="nVBr-f2orLscCy9mesvD-39" value="m_major" style="text;html=1;strokeColor=none;fillColor=none;align=right;verticalAlign=middle;whiteSpace=wrap;rounded=0;" vertex="1" parent="WZiZD5s-zwFRVD76pO2U-1">
          <mxGeometry x="546.63" y="140" width="60" height="20" as="geometry" />
        </mxCell>
        <mxCell id="nVBr-f2orLscCy9mesvD-40" value="person" style="text;html=1;strokeColor=none;fillColor=none;align=right;verticalAlign=middle;whiteSpace=wrap;rounded=0;fontColor=default;" vertex="1" parent="WZiZD5s-zwFRVD76pO2U-1">
          <mxGeometry x="471.5" y="317" width="60" height="20" as="geometry" />
        </mxCell>
        <mxCell id="nVBr-f2orLscCy9mesvD-42" value="" style="rounded=0;whiteSpace=wrap;html=1;" vertex="1" parent="WZiZD5s-zwFRVD76pO2U-1">
          <mxGeometry x="534.5" y="318.5" width="17" height="17" as="geometry" />
        </mxCell>
        <mxCell id="nVBr-f2orLscCy9mesvD-43" style="edgeStyle=orthogonalEdgeStyle;rounded=0;orthogonalLoop=1;jettySize=auto;html=1;entryX=0.5;entryY=1;entryDx=0;entryDy=0;curved=1;" edge="1" parent="WZiZD5s-zwFRVD76pO2U-1" target="nVBr-f2orLscCy9mesvD-29">
          <mxGeometry relative="1" as="geometry">
            <mxPoint x="543" y="327" as="sourcePoint" />
            <Array as="points">
              <mxPoint x="647" y="327" />
            </Array>
          </mxGeometry>
        </mxCell>
        <mxCell id="nVBr-f2orLscCy9mesvD-72" value="&lt;i&gt;makeIntroduction stack frame&lt;/i&gt;" style="text;html=1;strokeColor=none;fillColor=none;align=left;verticalAlign=middle;whiteSpace=wrap;rounded=0;" vertex="1" parent="WZiZD5s-zwFRVD76pO2U-1">
          <mxGeometry x="445" y="290" width="190" height="20" as="geometry" />
        </mxCell>
        <mxCell id="nVBr-f2orLscCy9mesvD-77" value="" style="rounded=0;whiteSpace=wrap;html=1;" vertex="1" parent="WZiZD5s-zwFRVD76pO2U-1">
          <mxGeometry x="347.5" y="540" width="225.5" height="140" as="geometry" />
        </mxCell>
        <mxCell id="nVBr-f2orLscCy9mesvD-78" value="s" style="text;html=1;strokeColor=none;fillColor=none;align=right;verticalAlign=middle;whiteSpace=wrap;rounded=0;fontColor=default;" vertex="1" parent="WZiZD5s-zwFRVD76pO2U-1">
          <mxGeometry x="283" y="540" width="60" height="20" as="geometry" />
        </mxCell>
        <mxCell id="nVBr-f2orLscCy9mesvD-79" value="" style="rounded=0;whiteSpace=wrap;html=1;" vertex="1" parent="WZiZD5s-zwFRVD76pO2U-1">
          <mxGeometry x="421.38" y="610" width="139.5" height="60" as="geometry" />
        </mxCell>
        <mxCell id="nVBr-f2orLscCy9mesvD-80" value="Alex" style="rounded=0;whiteSpace=wrap;html=1;align=center;" vertex="1" parent="WZiZD5s-zwFRVD76pO2U-1">
          <mxGeometry x="473.38" y="620" width="77.5" height="20" as="geometry" />
        </mxCell>
        <mxCell id="nVBr-f2orLscCy9mesvD-81" value="m_name" style="text;html=1;strokeColor=none;fillColor=none;align=right;verticalAlign=middle;whiteSpace=wrap;rounded=0;" vertex="1" parent="WZiZD5s-zwFRVD76pO2U-1">
          <mxGeometry x="412.38" y="620" width="60" height="20" as="geometry" />
        </mxCell>
        <mxCell id="nVBr-f2orLscCy9mesvD-82" value="20" style="rounded=0;whiteSpace=wrap;html=1;align=center;" vertex="1" parent="WZiZD5s-zwFRVD76pO2U-1">
          <mxGeometry x="473.38" y="640" width="77.5" height="20" as="geometry" />
        </mxCell>
        <mxCell id="nVBr-f2orLscCy9mesvD-83" value="m_age" style="text;html=1;strokeColor=none;fillColor=none;align=right;verticalAlign=middle;whiteSpace=wrap;rounded=0;" vertex="1" parent="WZiZD5s-zwFRVD76pO2U-1">
          <mxGeometry x="412.38" y="640" width="60" height="20" as="geometry" />
        </mxCell>
        <mxCell id="nVBr-f2orLscCy9mesvD-84" value="Student Object" style="text;html=1;strokeColor=none;fillColor=none;align=left;verticalAlign=middle;whiteSpace=wrap;rounded=0;fontStyle=2;fontColor=#666666;" vertex="1" parent="WZiZD5s-zwFRVD76pO2U-1">
          <mxGeometry x="347.5" y="520" width="105.5" height="20" as="geometry" />
        </mxCell>
        <mxCell id="nVBr-f2orLscCy9mesvD-85" value="Person Object" style="text;html=1;strokeColor=none;fillColor=none;align=left;verticalAlign=middle;whiteSpace=wrap;rounded=0;fontStyle=2;fontColor=#666666;" vertex="1" parent="WZiZD5s-zwFRVD76pO2U-1">
          <mxGeometry x="421.38" y="590" width="105.5" height="20" as="geometry" />
        </mxCell>
        <mxCell id="nVBr-f2orLscCy9mesvD-86" value="Computer Science" style="rounded=0;whiteSpace=wrap;html=1;align=center;" vertex="1" parent="WZiZD5s-zwFRVD76pO2U-1">
          <mxGeometry x="420.63" y="550" width="119" height="20" as="geometry" />
        </mxCell>
        <mxCell id="nVBr-f2orLscCy9mesvD-87" value="m_major" style="text;html=1;strokeColor=none;fillColor=none;align=right;verticalAlign=middle;whiteSpace=wrap;rounded=0;" vertex="1" parent="WZiZD5s-zwFRVD76pO2U-1">
          <mxGeometry x="359.63" y="550" width="60" height="20" as="geometry" />
        </mxCell>
        <mxCell id="nVBr-f2orLscCy9mesvD-88" value="p" style="text;html=1;strokeColor=none;fillColor=none;align=right;verticalAlign=middle;whiteSpace=wrap;rounded=0;fontColor=default;" vertex="1" parent="WZiZD5s-zwFRVD76pO2U-1">
          <mxGeometry x="284.5" y="727" width="60" height="20" as="geometry" />
        </mxCell>
        <mxCell id="nVBr-f2orLscCy9mesvD-89" value="&lt;span style=&quot;text-align: left;&quot;&gt;0x0...500&lt;/span&gt;" style="rounded=0;whiteSpace=wrap;html=1;" vertex="1" parent="WZiZD5s-zwFRVD76pO2U-1">
          <mxGeometry x="347.5" y="728.5" width="82.5" height="17" as="geometry" />
        </mxCell>
        <mxCell id="nVBr-f2orLscCy9mesvD-90" style="edgeStyle=orthogonalEdgeStyle;rounded=0;orthogonalLoop=1;jettySize=auto;html=1;curved=1;exitX=1;exitY=0.5;exitDx=0;exitDy=0;entryX=0.5;entryY=1;entryDx=0;entryDy=0;" edge="1" parent="WZiZD5s-zwFRVD76pO2U-1" target="nVBr-f2orLscCy9mesvD-77" source="nVBr-f2orLscCy9mesvD-89">
          <mxGeometry relative="1" as="geometry">
            <mxPoint x="470" y="737" as="sourcePoint" />
            <Array as="points">
              <mxPoint x="460" y="737" />
            </Array>
            <mxPoint x="510" y="690" as="targetPoint" />
          </mxGeometry>
        </mxCell>
        <mxCell id="nVBr-f2orLscCy9mesvD-110" value="Memory Address" style="text;html=1;strokeColor=none;fillColor=none;align=left;verticalAlign=middle;whiteSpace=wrap;rounded=0;fontStyle=2;fontColor=#666666;" vertex="1" parent="WZiZD5s-zwFRVD76pO2U-1">
          <mxGeometry x="575" y="520" width="105.5" height="20" as="geometry" />
        </mxCell>
        <mxCell id="nVBr-f2orLscCy9mesvD-111" value="0x0...500" style="text;html=1;strokeColor=none;fillColor=none;align=left;verticalAlign=middle;whiteSpace=wrap;rounded=0;fontColor=default;" vertex="1" parent="WZiZD5s-zwFRVD76pO2U-1">
          <mxGeometry x="576" y="540" width="60" height="20" as="geometry" />
        </mxCell>
        <mxCell id="nVBr-f2orLscCy9mesvD-112" value="sPtr" style="text;html=1;strokeColor=none;fillColor=none;align=right;verticalAlign=middle;whiteSpace=wrap;rounded=0;fontColor=default;" vertex="1" parent="WZiZD5s-zwFRVD76pO2U-1">
          <mxGeometry x="284.5" y="790" width="60" height="20" as="geometry" />
        </mxCell>
        <mxCell id="nVBr-f2orLscCy9mesvD-113" value="&lt;span style=&quot;text-align: left;&quot;&gt;0x0...500&lt;/span&gt;" style="rounded=0;whiteSpace=wrap;html=1;" vertex="1" parent="WZiZD5s-zwFRVD76pO2U-1">
          <mxGeometry x="347.5" y="791.5" width="82.5" height="17" as="geometry" />
        </mxCell>
        <mxCell id="nVBr-f2orLscCy9mesvD-114" style="edgeStyle=orthogonalEdgeStyle;rounded=0;orthogonalLoop=1;jettySize=auto;html=1;curved=1;exitX=1;exitY=0.5;exitDx=0;exitDy=0;entryX=0.75;entryY=1;entryDx=0;entryDy=0;" edge="1" parent="WZiZD5s-zwFRVD76pO2U-1" source="nVBr-f2orLscCy9mesvD-113" target="nVBr-f2orLscCy9mesvD-77">
          <mxGeometry relative="1" as="geometry">
            <mxPoint x="430" y="771" as="sourcePoint" />
            <Array as="points">
              <mxPoint x="517" y="800" />
              <mxPoint x="517" y="680" />
            </Array>
            <mxPoint x="460" y="714" as="targetPoint" />
          </mxGeometry>
        </mxCell>
        <mxCell id="nVBr-f2orLscCy9mesvD-115" value="Person*" style="text;html=1;strokeColor=none;fillColor=none;align=left;verticalAlign=middle;whiteSpace=wrap;rounded=0;fontStyle=2;fontColor=#666666;" vertex="1" parent="WZiZD5s-zwFRVD76pO2U-1">
          <mxGeometry x="347.88" y="707" width="105.5" height="20" as="geometry" />
        </mxCell>
        <mxCell id="nVBr-f2orLscCy9mesvD-116" value="Student*" style="text;html=1;strokeColor=none;fillColor=none;align=left;verticalAlign=middle;whiteSpace=wrap;rounded=0;fontStyle=2;fontColor=#666666;" vertex="1" parent="WZiZD5s-zwFRVD76pO2U-1">
          <mxGeometry x="347.88" y="771.5" width="105.5" height="20" as="geometry" />
        </mxCell>
      </root>
    </mxGraphModel>
  </diagram>
</mxfile>
